<svg xmlns="http://www.w3.org/2000/svg" viewBox="0 0 128 128" width="128" height="128">
  <defs>
    <!-- Background Gradient -->
    <radialGradient id="bgGrad" cx="50%" cy="50%" r="50%">
      <stop offset="0%" stop-color="#1c0e08" />
      <stop offset="100%" stop-color="#0e0704" />
    </radialGradient>

    <!-- Glowing Border Gradient -->
    <linearGradient id="borderGrad" x1="0%" y1="0%" x2="100%" y2="100%">
      <stop offset="0%" stop-color="#FF7B00" />
      <stop offset="50%" stop-color="#FFA62B" />
      <stop offset="100%" stop-color="#E63946" />
    </linearGradient>

    <!-- Inner Glow Gradient -->
    <radialGradient id="innerGlow" cx="50%" cy="50%" r="50%">
      <stop offset="70%" stop-color="#FF7B00" stop-opacity="0" />
      <stop offset="100%" stop-color="#FF7B00" stop-opacity="0.25" />
    </radialGradient>

    <!-- Symbol Glow Filter -->
    <filter id="glow" x="-20%" y="-20%" width="140%" height="140%">
      <feGaussianBlur stdDeviation="3" result="blur" />
      <feMerge>
        <feMergeNode in="blur" />
        <feMergeNode in="SourceGraphic" />
      </feMerge>
    </filter>

    <!-- Drop Shadow for Depth -->
    <filter id="shadow" x="-10%" y="-10%" width="120%" height="120%">
      <feDropShadow dx="0" dy="4" stdDeviation="6" flood-color="#000000" flood-opacity="0.6" />
    </filter>
  </defs>

  <!-- Hexagon Outer Shape with Shadow -->
  <g filter="url(#shadow)">
    <!-- Glowing Hexagon Border -->
    <polygon points="64,6 114,35 114,93 64,122 14,93 14,35" fill="url(#borderGrad)" />
    
    <!-- Dark Inner Hexagon Background -->
    <polygon points="64,9 111,36 111,92 64,119 17,92 17,36" fill="url(#bgGrad)" />

    <!-- Inner Hexagon Glow overlay -->
    <polygon points="64,9 111,36 111,92 64,119 17,92 17,36" fill="url(#innerGlow)" />
  </g>

  <!-- Glowing Central Symbol -->
  <g filter="url(#glow)">
    
        <!-- Light refraction triangle -->
        <g stroke-linecap="round" stroke-linejoin="round" fill="none">
          <polygon points="64,34 94,86 34,86" stroke="#FF7B00" stroke-width="4" fill="#FF7B00" fill-opacity="0.1" />
          <!-- Light ray in -->
          <line x1="16" y1="74" x2="52" y2="64" stroke="#fff" stroke-width="4" />
          <!-- Multi-colored fire rays out -->
          <line x1="74" y1="60" x2="112" y2="44" stroke="#E63946" stroke-width="4" />
          <line x1="76" y1="66" x2="112" y2="60" stroke="#FFA62B" stroke-width="3.5" />
          <line x1="74" y1="72" x2="112" y2="76" stroke="#FF7B00" stroke-width="3" />
        </g>
      
  </g>

  <!-- Small geometric accent details -->
  <circle cx="64" cy="22" r="1.5" fill="#fff" opacity="0.8" />
  <circle cx="34" cy="98" r="1" fill="#E63946" opacity="0.4" />
  <circle cx="94" cy="98" r="1" fill="#FF7B00" opacity="0.4" />
</svg>
