<svg xmlns="http://www.w3.org/2000/svg" viewBox="0 0 128 128" width="128" height="128">
  <defs>
    <!-- Background Gradient -->
    <radialGradient id="bgGrad" cx="50%" cy="50%" r="50%">
      <stop offset="0%" stop-color="#0F172A" />
      <stop offset="100%" stop-color="#080c16" />
    </radialGradient>

    <!-- Glowing Border Gradient -->
    <linearGradient id="borderGrad" x1="0%" y1="0%" x2="100%" y2="100%">
      <stop offset="0%" stop-color="#3B82F6" />
      <stop offset="50%" stop-color="#60A5FA" />
      <stop offset="100%" stop-color="#F8FAFC" />
    </linearGradient>

    <!-- Inner Glow Gradient -->
    <radialGradient id="innerGlow" cx="50%" cy="50%" r="50%">
      <stop offset="70%" stop-color="#3B82F6" stop-opacity="0" />
      <stop offset="100%" stop-color="#3B82F6" stop-opacity="0.25" />
    </radialGradient>

    <!-- Symbol Glow Filter -->
    <filter id="glow" x="-20%" y="-20%" width="140%" height="140%">
      <feGaussianBlur stdDeviation="3" result="blur" />
      <feMerge>
        <feMergeNode in="blur" />
        <feMergeNode in="SourceGraphic" />
      </feMerge>
    </filter>

    <!-- Drop Shadow for Depth -->
    <filter id="shadow" x="-10%" y="-10%" width="120%" height="120%">
      <feDropShadow dx="0" dy="4" stdDeviation="6" flood-color="#000000" flood-opacity="0.6" />
    </filter>
  </defs>

  <!-- Hexagon Outer Shape with Shadow -->
  <g filter="url(#shadow)">
    <!-- Glowing Hexagon Border -->
    <polygon points="64,6 114,35 114,93 64,122 14,93 14,35" fill="url(#borderGrad)" />
    
    <!-- Dark Inner Hexagon Background -->
    <polygon points="64,9 111,36 111,92 64,119 17,92 17,36" fill="url(#bgGrad)" />

    <!-- Inner Hexagon Glow overlay -->
    <polygon points="64,9 111,36 111,92 64,119 17,92 17,36" fill="url(#innerGlow)" />
  </g>

  <!-- Glowing Central Symbol -->
  <g filter="url(#glow)">
    
        <!-- Balanced Scales -->
        <g stroke="#3B82F6" stroke-width="3" stroke-linecap="round" stroke-linejoin="round" fill="none">
          <line x1="64" y1="36" x2="64" y2="92" stroke-width="4" />
          <line x1="48" y1="92" x2="80" y2="92" stroke-width="4" />
          <line x1="36" y1="44" x2="92" y2="44" stroke="#F8FAFC" stroke-width="4" />
          <circle cx="64" cy="44" r="3" fill="#F8FAFC" stroke="none" />
          <!-- Left Plate -->
          <line x1="36" y1="44" x2="24" y2="68" stroke-width="1.5" />
          <line x1="36" y1="44" x2="48" y2="68" stroke-width="1.5" />
          <path d="M20,68 L52,68 C52,78 20,78 20,68 Z" fill="#3B82F6" fill-opacity="0.1" stroke-width="2" />
          <!-- Right Plate -->
          <line x1="92" y1="44" x2="80" y2="68" stroke-width="1.5" />
          <line x1="92" y1="44" x2="104" y2="68" stroke-width="1.5" />
          <path d="M76,68 L108,68 C108,78 76,78 76,68 Z" fill="#3B82F6" fill-opacity="0.1" stroke-width="2" />
        </g>
      
  </g>

  <!-- Small geometric accent details -->
  <circle cx="64" cy="22" r="1.5" fill="#fff" opacity="0.8" />
  <circle cx="34" cy="98" r="1" fill="#F8FAFC" opacity="0.4" />
  <circle cx="94" cy="98" r="1" fill="#3B82F6" opacity="0.4" />
</svg>
