<svg xmlns="http://www.w3.org/2000/svg" viewBox="0 0 128 128" width="128" height="128">
  <defs>
    <!-- Background Gradient -->
    <radialGradient id="bgGrad" cx="50%" cy="50%" r="50%">
      <stop offset="0%" stop-color="#20080c" />
      <stop offset="100%" stop-color="#0e0305" />
    </radialGradient>

    <!-- Glowing Border Gradient -->
    <linearGradient id="borderGrad" x1="0%" y1="0%" x2="100%" y2="100%">
      <stop offset="0%" stop-color="#E63946" />
      <stop offset="50%" stop-color="#FF7B00" />
      <stop offset="100%" stop-color="#FFA62B" />
    </linearGradient>

    <!-- Inner Glow Gradient -->
    <radialGradient id="innerGlow" cx="50%" cy="50%" r="50%">
      <stop offset="70%" stop-color="#E63946" stop-opacity="0" />
      <stop offset="100%" stop-color="#E63946" stop-opacity="0.25" />
    </radialGradient>

    <!-- Symbol Glow Filter -->
    <filter id="glow" x="-20%" y="-20%" width="140%" height="140%">
      <feGaussianBlur stdDeviation="3" result="blur" />
      <feMerge>
        <feMergeNode in="blur" />
        <feMergeNode in="SourceGraphic" />
      </feMerge>
    </filter>

    <!-- Drop Shadow for Depth -->
    <filter id="shadow" x="-10%" y="-10%" width="120%" height="120%">
      <feDropShadow dx="0" dy="4" stdDeviation="6" flood-color="#000000" flood-opacity="0.6" />
    </filter>
  </defs>

  <!-- Hexagon Outer Shape with Shadow -->
  <g filter="url(#shadow)">
    <!-- Glowing Hexagon Border -->
    <polygon points="64,6 114,35 114,93 64,122 14,93 14,35" fill="url(#borderGrad)" />
    
    <!-- Dark Inner Hexagon Background -->
    <polygon points="64,9 111,36 111,92 64,119 17,92 17,36" fill="url(#bgGrad)" />

    <!-- Inner Hexagon Glow overlay -->
    <polygon points="64,9 111,36 111,92 64,119 17,92 17,36" fill="url(#innerGlow)" />
  </g>

  <!-- Glowing Central Symbol -->
  <g filter="url(#glow)">
    
        <!-- Power Crown of Absolute rule -->
        <g stroke="#FFA62B" stroke-width="4" fill="none" stroke-linecap="round" stroke-linejoin="round">
          <path d="M30,84 L38,40 L52,56 L64,28 L76,56 L90,40 L98,84 Z" fill="#FF7B00" fill-opacity="0.15" stroke-width="5" />
          <!-- Glow centers on crown tips -->
          <circle cx="38" cy="34" r="3" fill="#fff" />
          <circle cx="64" cy="22" r="3.5" fill="#fff" />
          <circle cx="90" cy="34" r="3" fill="#fff" />
          <!-- Underline -->
          <line x1="24" y1="84" x2="104" y2="84" stroke="#E63946" stroke-width="5" />
        </g>
      
  </g>

  <!-- Small geometric accent details -->
  <circle cx="64" cy="22" r="1.5" fill="#fff" opacity="0.8" />
  <circle cx="34" cy="98" r="1" fill="#FFA62B" opacity="0.4" />
  <circle cx="94" cy="98" r="1" fill="#E63946" opacity="0.4" />
</svg>
