<svg xmlns="http://www.w3.org/2000/svg" viewBox="0 0 128 128" width="128" height="128">
  <defs>
    <!-- Background Gradient -->
    <radialGradient id="bgGrad" cx="50%" cy="50%" r="50%">
      <stop offset="0%" stop-color="#1b140a" />
      <stop offset="100%" stop-color="#0c0904" />
    </radialGradient>

    <!-- Glowing Border Gradient -->
    <linearGradient id="borderGrad" x1="0%" y1="0%" x2="100%" y2="100%">
      <stop offset="0%" stop-color="#FFA62B" />
      <stop offset="50%" stop-color="#FF7B00" />
      <stop offset="100%" stop-color="#22C55E" />
    </linearGradient>

    <!-- Inner Glow Gradient -->
    <radialGradient id="innerGlow" cx="50%" cy="50%" r="50%">
      <stop offset="70%" stop-color="#FFA62B" stop-opacity="0" />
      <stop offset="100%" stop-color="#FFA62B" stop-opacity="0.25" />
    </radialGradient>

    <!-- Symbol Glow Filter -->
    <filter id="glow" x="-20%" y="-20%" width="140%" height="140%">
      <feGaussianBlur stdDeviation="3" result="blur" />
      <feMerge>
        <feMergeNode in="blur" />
        <feMergeNode in="SourceGraphic" />
      </feMerge>
    </filter>

    <!-- Drop Shadow for Depth -->
    <filter id="shadow" x="-10%" y="-10%" width="120%" height="120%">
      <feDropShadow dx="0" dy="4" stdDeviation="6" flood-color="#000000" flood-opacity="0.6" />
    </filter>
  </defs>

  <!-- Hexagon Outer Shape with Shadow -->
  <g filter="url(#shadow)">
    <!-- Glowing Hexagon Border -->
    <polygon points="64,6 114,35 114,93 64,122 14,93 14,35" fill="url(#borderGrad)" />
    
    <!-- Dark Inner Hexagon Background -->
    <polygon points="64,9 111,36 111,92 64,119 17,92 17,36" fill="url(#bgGrad)" />

    <!-- Inner Hexagon Glow overlay -->
    <polygon points="64,9 111,36 111,92 64,119 17,92 17,36" fill="url(#innerGlow)" />
  </g>

  <!-- Glowing Central Symbol -->
  <g filter="url(#glow)">
    
        <!-- Wanted scroll/Coin bag -->
        <g stroke="#FFA62B" stroke-width="3.5" fill="none" stroke-linecap="round" stroke-linejoin="round">
          <path d="M36,36 L92,36 C92,36 100,56 92,76 L36,76 C36,76 44,56 36,36 Z" fill="#FF7B00" fill-opacity="0.15" stroke-width="4" />
          <!-- Star/Dollar symbol -->
          <path d="M64,44 L67,52 L76,52 L69,57 L71,66 L64,60 L57,66 L59,57 L52,52 L61,52 Z" fill="#22C55E" stroke="none" />
          <line x1="28" y1="36" x2="28" y2="84" stroke-width="5" />
          <line x1="100" y1="36" x2="100" y2="84" stroke-width="5" />
        </g>
      
  </g>

  <!-- Small geometric accent details -->
  <circle cx="64" cy="22" r="1.5" fill="#fff" opacity="0.8" />
  <circle cx="34" cy="98" r="1" fill="#22C55E" opacity="0.4" />
  <circle cx="94" cy="98" r="1" fill="#FFA62B" opacity="0.4" />
</svg>
